<?xml version="1.0" encoding="UTF-8" standalone="no"?>
<!-- Created with Inkscape (http://www.inkscape.org/) -->

<svg
   width="865.51184"
   height="1224.5669"
   viewBox="0 0 229 323.99999"
   version="1.1"
   id="svg1"
   sodipodi:docname="diagram.svg"
   inkscape:version="1.3.2 (091e20e, 2023-11-25, custom)"
   xmlns:inkscape="http://www.inkscape.org/namespaces/inkscape"
   xmlns:sodipodi="http://sodipodi.sourceforge.net/DTD/sodipodi-0.dtd"
   xmlns="http://www.w3.org/2000/svg"
   xmlns:svg="http://www.w3.org/2000/svg">
  <sodipodi:namedview
     id="namedview1"
     pagecolor="#ffffff"
     bordercolor="#000000"
     borderopacity="0.25"
     inkscape:showpageshadow="2"
     inkscape:pageopacity="0.0"
     inkscape:pagecheckerboard="0"
     inkscape:deskcolor="#d1d1d1"
     inkscape:document-units="mm"
     inkscape:zoom="1.0242632"
     inkscape:cx="552.59235"
     inkscape:cy="116.66923"
     inkscape:window-width="1920"
     inkscape:window-height="1009"
     inkscape:window-x="-8"
     inkscape:window-y="-8"
     inkscape:window-maximized="1"
     inkscape:current-layer="svg1"
     showguides="true">
    <sodipodi:guide
       position="137.00422,291.87196"
       orientation="1,0"
       id="guide1"
       inkscape:locked="false" />
    <sodipodi:guide
       position="26.667896,306.28228"
       orientation="1,0"
       id="guide2"
       inkscape:locked="false" />
  </sodipodi:namedview>
  <defs
     id="defs1">
    <inkscape:path-effect
       effect="fillet_chamfer"
       id="path-effect7"
       is_visible="true"
       lpeversion="1"
       nodesatellites_param="F,0,0,1,0,3,0,1 @ F,0,0,1,0,3,0,1 @ F,0,0,1,0,3,0,1 @ F,0,0,1,0,3,0,1 @ F,0,0,1,0,3,0,1 @ F,0,0,1,0,3,0,1 @ F,0,0,1,0,3,0,1 @ F,0,0,1,0,3,0,1 @ F,0,0,1,0,3,0,1 @ F,0,0,1,0,3,0,1 @ F,0,0,1,0,3,0,1 @ F,0,0,1,0,3,0,1"
       radius="0"
       unit="px"
       method="auto"
       mode="F"
       chamfer_steps="1"
       flexible="false"
       use_knot_distance="true"
       apply_no_radius="true"
       apply_with_radius="true"
       only_selected="false"
       hide_knots="false" />
    <inkscape:path-effect
       effect="fillet_chamfer"
       id="path-effect5"
       is_visible="true"
       lpeversion="1"
       nodesatellites_param="F,0,0,1,0,0,0,1 @ F,0,0,1,0,0,0,1 @ F,0,0,1,0,0.3,0,1 @ F,0,0,1,0,0.3,0,1 @ F,0,0,1,0,0.3,0,1 @ F,0,0,1,0,0.3,0,1 @ F,0,0,1,0,0,0,1 @ F,0,0,1,0,0,0,1 @ F,0,0,1,0,0,0,1 @ F,0,0,1,0,0,0,1 @ F,0,0,1,0,0.3,0,1 @ F,0,0,1,0,0.3,0,1 @ F,0,0,1,0,0.3,0,1 @ F,0,0,1,0,0.3,0,1 @ F,0,0,1,0,0,0,1 @ F,0,0,1,0,0,0,1"
       radius="0"
       unit="px"
       method="auto"
       mode="F"
       chamfer_steps="1"
       flexible="false"
       use_knot_distance="true"
       apply_no_radius="true"
       apply_with_radius="true"
       only_selected="false"
       hide_knots="false" />
    <inkscape:path-effect
       effect="fillet_chamfer"
       id="path-effect4"
       is_visible="true"
       lpeversion="1"
       nodesatellites_param="F,0,0,1,0,0,0,1 @ F,0,0,1,0,0,0,1 @ F,0,1,1,0,0.38101455,0,1 @ F,0,1,1,0,0.38101455,0,1 @ F,0,0,1,0,0.6681754,0,1 @ F,0,0,1,0,0.30245633,0,1 @ F,0,0,1,0,0,0,1 @ F,0,0,1,0,0,0,1 @ F,0,0,1,0,0,0,1 @ F,0,0,1,0,0,0,1 @ F,0,0,1,0,0.3,0,1 @ F,0,0,1,0,0.38101455,0,1 @ F,0,0,1,0,0.60325088,0,1 @ F,0,0,1,0,0.99572946,0,1 @ F,0,0,1,0,0,0,1 @ F,0,0,1,0,0,0,1"
       radius="0"
       unit="px"
       method="auto"
       mode="F"
       chamfer_steps="1"
       flexible="false"
       use_knot_distance="true"
       apply_no_radius="true"
       apply_with_radius="true"
       only_selected="false"
       hide_knots="false" />
    <inkscape:path-effect
       effect="fillet_chamfer"
       id="path-effect3"
       is_visible="true"
       lpeversion="1"
       nodesatellites_param="F,0,0,1,0,0.87827356,0,1 @ F,0,0,1,0,0,0,1 @ F,0,0,1,0,0,0,1 @ F,0,0,1,0,0,0,1"
       radius="0"
       unit="px"
       method="auto"
       mode="F"
       chamfer_steps="1"
       flexible="false"
       use_knot_distance="true"
       apply_no_radius="true"
       apply_with_radius="true"
       only_selected="false"
       hide_knots="false" />
  </defs>
  <g
     inkscape:label="Layer 1"
     inkscape:groupmode="layer"
     id="layer1" />
  <path
     id="rect5"
     style="display:none;stroke:#f30000;stroke-width:0.1"
     d="M 37,80 32,73 C 31,71 29,70 27,70 H 3 C 1,70 0,69 0,67 V 3 C 0,1 1,0 3,0 h 24 c 2,0 4,1 5,3 l 5,7 c 1,2 3,3 5,3 h 21 c 2,0 4,-1 5,-3 l 5,-7 c 1,-2 3,-3 5,-3 h 130 c 2,0 3,1 3,3 v 64 c 0,2 -1,3 -3,3 H 78 c -2,0 -4,1 -5,3 l -5,7 c -1,2 -2,3 -4,3 H 42 c -2,0 -4,-1 -5,-3 z"
     sodipodi:nodetypes="cccccccccccccccsssscccccc"
     inkscape:label="normal" />
  <path
     id="path3"
     style="display:inline;stroke:#f30000;stroke-width:0.1"
     d="M 97,40 92,33 C 91,31 89,30 87,30 H 3 C 1,30 0,29 0,27 V 3 C 0,1 1,0 3,0 h 24 c 2,0 4,1 5,3 l 5,7 c 1,2 3,3 5,3 h 21 c 2,0 4,-1 5,-3 l 5,-7 c 1,-2 3,-3 5,-3 h 130 c 2,0 3,1 3,3 v 24 c 0,2 -1,3 -3,3 H 137 c -2,0 -4,1 -5,3 l -5,7 c -1,2 -2,3 -4,3 h -21 c -2,0 -4,-1 -5,-3 z"
     sodipodi:nodetypes="cccccccccccccccsssscccccc"
     inkscape:label="indent_3" />
  <path
     id="path1"
     style="display:none;stroke:#f30000;stroke-width:0.1"
     d="M 77,40 72,33 C 71,31 69,30 67,30 H 3 C 1,30 0,29 0,27 V 3 C 0,1 1,0 3,0 h 24 c 2,0 4,1 5,3 l 5,7 c 1,2 3,3 5,3 h 21 c 2,0 4,-1 5,-3 l 5,-7 c 1,-2 3,-3 5,-3 h 140 c 2,0 3,1 3,3 v 24 c 0,2 -1,3 -3,3 H 117 c -2,0 -4,1 -5,3 l -5,7 c -1,2 -2,3 -4,3 H 82 c -2,0 -4,-1 -5,-3 z"
     sodipodi:nodetypes="cccccccccccccccsssscccccc"
     inkscape:label="indent_2" />
  <path
     id="path4"
     style="display:none;stroke:#f30000;stroke-width:0.1"
     d="M 57,40 52,33 C 51,31 49,30 47,30 H 3 C 1,30 0,29 0,27 V 3 C 0,1 1,0 3,0 h 24 c 2,0 4,1 5,3 l 5,7 c 1,2 3,3 5,3 h 21 c 2,0 4,-1 5,-3 l 5,-7 c 1,-2 3,-3 5,-3 h 130 c 2,0 3,1 3,3 v 24 c 0,2 -1,3 -3,3 H 97 c -2,0 -4,1 -5,3 l -5,7 c -1,2 -2,3 -4,3 H 62 c -2,0 -4,-1 -5,-3 z"
     sodipodi:nodetypes="cccccccccccccccsssscccccc"
     inkscape:label="indent_1" />
  <path
     id="path2"
     style="display:none;stroke:#f30000;stroke-width:0.1"
     d="M 37,40 32,33 C 31,31 29,30 27,30 H 3 C 1,30 0,29 0,27 V 3 C 0,1 1,0 3,0 h 24 c 2,0 4,1 5,3 l 5,7 c 1,2 3,3 5,3 h 21 c 2,0 4,-1 5,-3 l 5,-7 c 1,-2 3,-3 5,-3 h 150 c 2,0 3,1 3,3 v 24 c 0,2 -1,3 -3,3 H 78 c -2,0 -4,1 -5,3 l -5,7 c -1,2 -2,3 -4,3 H 42 c -2,0 -4,-1 -5,-3 z"
     sodipodi:nodetypes="cccccccccccccccsssscccccc"
     inkscape:label="indent_0" />
  <path
     id="path4-7"
     style="display:none;stroke:#f30000;stroke-width:0.1"
     d="M 57,80 52,73 C 51,71 49,70 47,70 H 3 C 1,70 0,69 0,67 V 3 C 0,1 1,0 3,0 h 24 c 2,0 4,1 5,3 l 5,7 c 1,2 3,3 5,3 h 21 c 2,0 4,-1 5,-3 l 5,-7 c 1,-2 3,-3 5,-3 h 130 c 2,0 3,1 3,3 v 64 c 0,2 -1,3 -3,3 H 97 c -2,0 -4,1 -5,3 l -5,7 c -1,2 -2,3 -4,3 H 62 c -2,0 -4,-1 -5,-3 z"
     sodipodi:nodetypes="cccccccccccccccsssscccccc"
     inkscape:label="block" />
  <path
     id="path5"
     style="display:none;stroke:#f30000;stroke-width:0.1"
     d="M 37,40 32,33 C 31,31 29,30 27,30 H 3 C 1,30 0,29 0,27 V 3 C 0,1 1,0 3,0 h 210 c 2,0 3,1 3,3 v 24 c 0,2 -1,3 -3,3 H 78 c -2,0 -4,1 -5,3 l -5,7 c -1,2 -2,3 -4,3 H 42 c -2,0 -4,-1 -5,-3 z"
     sodipodi:nodetypes="cccccccsssscccccc"
     inkscape:label="end_block" />
</svg>
